<svg xmlns="http://www.w3.org/2000/svg" viewBox="0 0 132.73 21.36"><defs><style>.cls-1{fill:#f96a22;}</style></defs><g id="Слой_2" data-name="Слой 2"><g id="Слой_1-2" data-name="Слой 1"><path class="cls-1" d="M9.3,21.18,0,.18H2.4L11.1,20H9.78L18.54.18h2.25l-9.3,21Zm23.54.18a12.25,12.25,0,0,1-4.41-.78,10.89,10.89,0,0,1-3.51-2.25,11,11,0,0,1-2.31-3.39,11,11,0,0,1-.81-4.26,10.78,10.78,0,0,1,.81-4.23,10.52,10.52,0,0,1,2.31-3.39A10.26,10.26,0,0,1,28.43.81a12.33,12.33,0,0,1,8.79,0A10.16,10.16,0,0,1,40.7,3,9.92,9.92,0,0,1,43,6.42a10.65,10.65,0,0,1,.84,4.26A10.65,10.65,0,0,1,43,14.94a9.92,9.92,0,0,1-2.31,3.39,10.54,10.54,0,0,1-3.48,2.25A12,12,0,0,1,32.84,21.36Zm0-2a9.37,9.37,0,0,0,3.48-.63,8.35,8.35,0,0,0,2.79-1.83A8.62,8.62,0,0,0,41,14.16a9,9,0,0,0,.66-3.48A8.77,8.77,0,0,0,41,7.23a8.2,8.2,0,0,0-1.86-2.76,7.78,7.78,0,0,0-2.79-1.83A9,9,0,0,0,32.84,2a9.21,9.21,0,0,0-3.51.66,8.08,8.08,0,0,0-2.82,1.83,8.83,8.83,0,0,0-1.86,2.76A8.77,8.77,0,0,0,24,10.68a8.91,8.91,0,0,0,.66,3.45,9.21,9.21,0,0,0,1.86,2.79,8.69,8.69,0,0,0,2.82,1.83A9.6,9.6,0,0,0,32.84,19.38ZM50.75,16l-.09-2.7L63.38.18h2.55L56.66,9.9,55.4,11.25Zm-1.92,5.22V.18h2.22v21Zm15.09,0L54.86,10.74l1.5-1.62,10.2,12.06ZM72.08,16,72,13.26,84.71.18h2.55L78,9.9l-1.26,1.35Zm-1.92,5.22V.18h2.22v21Zm15.09,0L76.19,10.74l1.5-1.62,10.2,12.06Zm14.65.18a12.25,12.25,0,0,1-4.41-.78A10.89,10.89,0,0,1,92,18.33a11,11,0,0,1-2.31-3.39,11,11,0,0,1-.81-4.26,10.78,10.78,0,0,1,.81-4.23A10.52,10.52,0,0,1,92,3.06,10.26,10.26,0,0,1,95.49.81a12.33,12.33,0,0,1,8.79,0A10.16,10.16,0,0,1,107.76,3a9.92,9.92,0,0,1,2.31,3.39,10.65,10.65,0,0,1,.84,4.26,10.65,10.65,0,0,1-.84,4.26,9.92,9.92,0,0,1-2.31,3.39,10.54,10.54,0,0,1-3.48,2.25A12,12,0,0,1,99.9,21.36Zm0-2a9.37,9.37,0,0,0,3.48-.63,8.35,8.35,0,0,0,2.79-1.83A8.62,8.62,0,0,0,108,14.16a9,9,0,0,0,.66-3.48A8.77,8.77,0,0,0,108,7.23a8.2,8.2,0,0,0-1.86-2.76,7.78,7.78,0,0,0-2.79-1.83A9,9,0,0,0,99.9,2a9.21,9.21,0,0,0-3.51.66,8.08,8.08,0,0,0-2.82,1.83,8.83,8.83,0,0,0-1.86,2.76,8.77,8.77,0,0,0-.66,3.45,8.91,8.91,0,0,0,.66,3.45,9.21,9.21,0,0,0,1.86,2.79,8.69,8.69,0,0,0,2.82,1.83A9.6,9.6,0,0,0,99.9,19.38Zm21.34,1.8-9.3-21h2.4L123,20h-1.32L130.48.18h2.25l-9.3,21Z"/></g></g></svg>